<svg width="24" height="24" viewBox="0 0 24 24" fill="none" xmlns="http://www.w3.org/2000/svg">
<path fill-rule="evenodd" clip-rule="evenodd" d="M19.2071 12.707C19.3946 12.5195 19.5 12.2651 19.5 11.9999C19.5 11.7347 19.3946 11.4804 19.2071 11.2928L15.1371 7.22282C14.7466 6.8323 14.1134 6.8323 13.7229 7.22282C13.3324 7.61335 13.3324 8.24651 13.7229 8.63704L16.0857 10.9999L5.50008 10.9999C4.94779 10.9999 4.50008 11.4476 4.50008 11.9999C4.50008 12.5522 4.94779 12.9999 5.50008 12.9999L16.0858 12.9999L13.7229 15.3628C13.3324 15.7533 13.3324 16.3865 13.7229 16.777C14.1134 17.1676 14.7466 17.1676 15.1371 16.777L19.2071 12.707Z" fill="#171719"/>
</svg>
