<svg width="24" height="24" viewBox="0 0 24 24" fill="none" xmlns="http://www.w3.org/2000/svg">
<path fill-rule="evenodd" clip-rule="evenodd" d="M20 5.99951C20 5.44723 19.4345 4.99951 18.7368 4.99951H5.26316C4.56554 4.99951 4 5.44723 4 5.99951C4 6.5518 4.56554 6.99951 5.26316 6.99951H18.7368C19.4345 6.99951 20 6.5518 20 5.99951ZM20 11.9995C20 11.4472 19.4345 10.9995 18.7368 10.9995H5.26316C4.56554 10.9995 4 11.4472 4 11.9995C4 12.5518 4.56554 12.9995 5.26316 12.9995H18.7368C19.4345 12.9995 20 12.5518 20 11.9995ZM18.7368 16.9995C19.4345 16.9995 20 17.4472 20 17.9995C20 18.5518 19.4345 18.9995 18.7368 18.9995H5.26316C4.56554 18.9995 4 18.5518 4 17.9995C4 17.4472 4.56554 16.9995 5.26316 16.9995H18.7368Z" fill="#171719"/>
</svg>
