<svg width="24" height="24" viewBox="0 0 24 24" fill="none" xmlns="http://www.w3.org/2000/svg">
<path d="M17.632 15.5108C18.2178 16.0966 18.2178 17.0463 17.632 17.6321C17.0462 18.2179 16.0965 18.2179 15.5107 17.6321L12.0355 14.157L8.56066 17.6318C7.97487 18.2176 7.02513 18.2176 6.43934 17.6318C5.85355 17.0461 5.85355 16.0963 6.43934 15.5105L9.91421 12.0357L6.4396 8.56104C5.85381 7.97526 5.85381 7.02551 6.4396 6.43972C7.02539 5.85393 7.97513 5.85393 8.56092 6.43972L12.0355 9.91434L15.5104 6.43946C16.0962 5.85368 17.0459 5.85368 17.6317 6.43946C18.2175 7.02525 18.2175 7.975 17.6317 8.56078L14.1569 12.0357L17.632 15.5108Z" fill="white"/>
</svg>
