<svg width="24" height="24" viewBox="0 0 24 24" fill="none" xmlns="http://www.w3.org/2000/svg">
<rect width="24" height="24" rx="12" fill="white"/>
<path d="M17.632 15.5108C18.2178 16.0965 18.2178 17.0463 17.632 17.6321C17.0462 18.2179 16.0965 18.2179 15.5107 17.6321L12.0355 14.1569L8.56066 17.6318C7.97487 18.2176 7.02513 18.2176 6.43934 17.6318C5.85355 17.046 5.85355 16.0963 6.43934 15.5105L9.91421 12.0356L6.4396 8.56101C5.85381 7.97522 5.85381 7.02548 6.4396 6.43969C7.02539 5.8539 7.97513 5.8539 8.56092 6.43969L12.0355 9.9143L15.5104 6.43943C16.0962 5.85365 17.0459 5.85364 17.6317 6.43943C18.2175 7.02522 18.2175 7.97497 17.6317 8.56075L14.1569 12.0356L17.632 15.5108Z" fill="#606F97"/>
</svg>
