<svg width="300" height="300" viewBox="0 0 300 300" fill="none" xmlns="http://www.w3.org/2000/svg">
<path opacity="0.4" d="M227.349 104.929C227.221 104.001 228.324 103.422 229.015 104.055L231.184 106.042C231.486 106.318 231.927 106.383 232.296 106.204L234.943 104.921C235.786 104.512 236.677 105.383 236.289 106.235L235.07 108.913C234.9 109.286 234.975 109.724 235.259 110.02L237.297 112.141C237.946 112.817 237.394 113.933 236.463 113.828L233.54 113.495C233.133 113.449 232.739 113.656 232.545 114.017L231.158 116.611C230.716 117.437 229.483 117.257 229.296 116.339L228.709 113.457C228.627 113.055 228.309 112.744 227.905 112.672L225.009 112.154C224.087 111.989 223.878 110.761 224.693 110.299L227.253 108.85C227.609 108.648 227.807 108.249 227.751 107.843L227.349 104.929Z" stroke="#6C7CA8" stroke-width="2"/>
<path opacity="0.2" d="M75.9415 87.4782C76.8187 87.1501 77.6253 88.0998 77.1594 88.9123L75.8598 91.1786C75.656 91.5341 75.6897 91.978 75.9448 92.2987L77.5715 94.343C78.1546 95.0758 77.5006 96.1364 76.584 95.9444L74.027 95.4087C73.6259 95.3247 73.2141 95.4939 72.988 95.8357L71.5464 98.0144C71.0296 98.7955 69.8189 98.5013 69.7182 97.5701L69.4375 94.9728C69.3935 94.5653 69.1053 94.226 68.7104 94.1165L66.1928 93.4188C65.2902 93.1687 65.196 91.9263 66.0504 91.5428L68.4339 90.4732C68.8078 90.3054 69.0415 89.9265 69.0235 89.5171L68.9091 86.9071C68.8681 85.9714 70.0206 85.4978 70.6493 86.192L72.4031 88.1283C72.6782 88.432 73.1108 88.5372 73.4947 88.3936L75.9415 87.4782Z" stroke="#6C7CA8" stroke-width="2"/>
<ellipse opacity="0.7" cx="150" cy="248.5" rx="43" ry="3.5" fill="#EDF0F8"/>
<path opacity="0.2" fill-rule="evenodd" clip-rule="evenodd" d="M249.5 145C249.5 144.448 249.052 144 248.5 144C247.948 144 247.5 144.448 247.5 145V150.5H242C241.448 150.5 241 150.948 241 151.5C241 152.052 241.448 152.5 242 152.5H247.5V158C247.5 158.552 247.948 159 248.5 159C249.052 159 249.5 158.552 249.5 158V152.5H255C255.552 152.5 256 152.052 256 151.5C256 150.948 255.552 150.5 255 150.5H249.5V145Z" fill="#6C7CA8"/>
<path opacity="0.4" fill-rule="evenodd" clip-rule="evenodd" d="M87.9097 204.718C88.3003 204.327 88.3003 203.694 87.9097 203.303C87.5192 202.913 86.8861 202.913 86.4955 203.303L82.6064 207.192L78.7174 203.303C78.3268 202.913 77.6937 202.913 77.3031 203.303C76.9126 203.694 76.9126 204.327 77.3031 204.718L81.1922 208.607L77.3031 212.496C76.9126 212.886 76.9126 213.519 77.3031 213.91C77.6937 214.3 78.3268 214.3 78.7174 213.91L82.6064 210.021L86.4955 213.91C86.8861 214.3 87.5192 214.3 87.9097 213.91C88.3003 213.519 88.3003 212.886 87.9097 212.496L84.0207 208.607L87.9097 204.718Z" fill="#6C7CA8"/>
<circle opacity="0.4" cx="143.5" cy="68.5" r="6.5" stroke="#6C7CA8" stroke-width="2"/>
<circle opacity="0.4" cx="45" cy="147" r="4" stroke="#6C7CA8" stroke-width="2"/>
<circle opacity="0.4" cx="217" cy="191" r="4" stroke="#6C7CA8" stroke-width="2"/>
<rect opacity="0.4" x="254.432" y="27.3071" width="10.7704" height="10.7704" rx="2" transform="rotate(163.136 254.432 27.3071)" stroke="#6C7CA8" stroke-width="2"/>
<path d="M96 115H203L190.137 223.492C189.765 226.634 187.101 229 183.938 229H115.062C111.899 229 109.235 226.634 108.863 223.492L96 115Z" fill="#EDF0F8"/>
<path fill-rule="evenodd" clip-rule="evenodd" d="M202.781 116.709L97.4785 124.072L96.3828 114.759H203.01L202.781 116.709Z" fill="#C1CAE2"/>
<path fill-rule="evenodd" clip-rule="evenodd" d="M138.438 87.7295C133.526 88.0729 129.823 92.3327 130.167 97.2439L130.692 104.754L85.2989 107.928C84.197 108.005 83.3662 108.961 83.4433 110.063L83.9472 117.269C84.0242 118.371 84.9799 119.202 86.0818 119.125L211.972 110.322C213.074 110.245 213.904 109.289 213.827 108.187L213.323 100.981C213.246 99.879 212.291 99.0483 211.189 99.1253L167.368 102.19L166.843 94.6792C166.5 89.768 162.24 86.0651 157.329 86.4085L138.438 87.7295ZM157.564 102.875L157.102 96.2769L140.035 97.4704L140.497 104.069L157.564 102.875Z" fill="#DAE0F2"/>
<rect x="125" y="153" width="50" height="6" rx="3" fill="#C1CAE2"/>
<rect x="131" y="171" width="39" height="7" rx="3.5" fill="#C1CAE2"/>
</svg>
