<svg width="118" height="104" viewBox="0 0 118 104" fill="none" xmlns="http://www.w3.org/2000/svg">
<rect width="118" height="104" rx="8" fill="#F3F5FB"/>
<path fill-rule="evenodd" clip-rule="evenodd" d="M53.8134 66.9521C53.6168 66.6678 53.4275 66.378 53.2455 66.0831C51.8034 63.7461 50.8581 61.1372 50.4685 58.4189C50.0788 55.7005 50.2532 52.9311 50.9807 50.2831C51.7082 47.6351 52.9732 45.1653 54.697 43.0276C55.1197 42.5034 55.5678 42.002 56.0392 41.5248L51.6587 37.1445C51.3593 36.8451 51.5713 36.3333 51.9947 36.3333L65.1871 36.3333C65.4495 36.3333 65.6623 36.546 65.6623 36.8084V50.0004C65.6623 50.4237 65.1504 50.6357 64.8511 50.3364L60.406 45.8914C59.945 46.6263 59.5518 47.4042 59.2325 48.2156C58.5248 50.0138 58.1951 51.9385 58.2638 53.8697C58.3325 55.801 58.7982 57.6973 59.6319 59.4407C60.2158 60.6618 60.9715 61.7895 61.8736 62.7905C71.5579 61.3971 79 53.0657 79 42.9961C79 31.9508 70.0457 22.9968 59 22.9968C48.2015 22.9968 39.4018 31.5545 39.0134 42.2578H39V42.9961V81.0031H39.5593C47.3641 81.0031 53.704 74.7309 53.8134 66.9521Z" fill="#E1E6F4"/>
</svg>
