<svg width="12" height="12" viewBox="0 0 12 12" fill="none" xmlns="http://www.w3.org/2000/svg">
<path fill-rule="evenodd" clip-rule="evenodd" d="M6 11C8.76142 11 11 8.76142 11 6C11 3.23858 8.76142 1 6 1C3.23858 1 1 3.23858 1 6C1 8.76142 3.23858 11 6 11ZM6.69017 5.70495C6.69017 6.1164 6.35662 6.44995 5.94517 6.44995C5.53371 6.44995 5.20017 6.1164 5.20017 5.70495V3.94995C5.19017 3.53995 5.53017 3.19995 5.94017 3.19995C6.35017 3.19995 6.69017 3.53995 6.69017 3.94995V5.70495ZM6.68995 7.69995C6.68995 8.1114 6.3564 8.44995 5.94495 8.44995C5.5335 8.44995 5.19995 8.1114 5.19995 7.69995C5.19995 7.2885 5.5335 6.94995 5.94495 6.94995C6.3564 6.94995 6.68995 7.2885 6.68995 7.69995Z" fill="#C8054B"/>
</svg>
