<svg width="24" height="24" viewBox="0 0 24 24" fill="none" xmlns="http://www.w3.org/2000/svg">
<path fill-rule="evenodd" clip-rule="evenodd" d="M21 12C21 12.2652 20.8946 12.5195 20.7071 12.7071L16.6371 16.7771C16.2466 17.1676 15.6134 17.1676 15.2229 16.7771C14.8324 16.3866 14.8324 15.7534 15.2229 15.3629L17.5858 12.9999L10.0001 12.9999C9.44779 12.9999 9.00008 12.5522 9.00008 11.9999C9.00008 11.4476 9.44779 10.9999 10.0001 10.9999L17.5857 10.9999L15.2229 8.63708C14.8324 8.24656 14.8324 7.61339 15.2229 7.22287C15.6134 6.83234 16.2466 6.83234 16.6371 7.22287L20.7071 11.2929C20.8946 11.4804 21 11.7348 21 12ZM4.91504 19.915L10 19.915C10.5523 19.915 11 19.4672 11 18.915C11 18.3627 10.5523 17.915 10 17.915L5.91504 17.915L5.91504 6.08496L10 6.08496C10.5523 6.08496 11 5.63725 11 5.08496C11 4.53268 10.5523 4.08496 10 4.08496L4.91504 4.08496C4.36275 4.08496 3.91504 4.53267 3.91504 5.08496L3.91504 18.915C3.91504 19.1802 4.02039 19.4345 4.20793 19.6221C4.39547 19.8096 4.64982 19.915 4.91504 19.915Z" fill="#171719"/>
</svg>
