<svg width="146" height="50" viewBox="0 0 146 50" fill="none" xmlns="http://www.w3.org/2000/svg">
<path fill-rule="evenodd" clip-rule="evenodd" d="M30.2886 31.3444C30.2076 31.2269 30.1295 31.1072 30.0543 30.9854C29.4414 29.9922 29.0397 28.8834 28.8741 27.7281C28.7085 26.5728 28.7826 25.3958 29.0918 24.2704C29.401 23.145 29.9386 22.0953 30.6712 21.1868C30.8509 20.964 31.0413 20.7509 31.2417 20.5481L30.11 19.4165C29.7134 19.0199 29.9943 18.3417 30.5552 18.3417H34.7018C35.0496 18.3417 35.3315 18.6236 35.3315 18.9713L35.3315 23.1178C35.3315 23.6787 34.6533 23.9596 34.2566 23.563L33.0975 22.4039C32.9016 22.7163 32.7345 23.0469 32.5988 23.3917C32.298 24.156 32.1579 24.974 32.1871 25.7947C32.2163 26.6155 32.4142 27.4215 32.7685 28.1624C33.0167 28.6813 33.3379 29.1606 33.7213 29.586C37.8371 28.9939 41 25.453 41 21.1734C41 16.4792 37.1944 12.6737 32.5 12.6737C27.9107 12.6737 24.1708 16.3107 24.0057 20.8596H24V21.1734V37.3263C27.3719 37.3263 30.1248 34.6757 30.2886 31.3444Z" fill="#171719"/>
</svg>
