<svg width="122" height="26" viewBox="0 0 122 26" fill="none" xmlns="http://www.w3.org/2000/svg">
<path fill-rule="evenodd" clip-rule="evenodd" d="M6.28858 19.3444C6.20758 19.2269 6.12947 19.1072 6.05433 18.9854C5.44145 17.9922 5.03969 16.8834 4.87408 15.7281C4.70848 14.5728 4.78258 13.3958 5.09177 12.2704C5.40096 11.145 5.93861 10.0953 6.67122 9.18679C6.85087 8.96401 7.0413 8.75088 7.24166 8.5481L6.11003 7.41651C5.71338 7.01987 5.99429 6.34167 6.55523 6.34167H10.7018C11.0496 6.34167 11.3315 6.62357 11.3315 6.97129L11.3315 11.1178C11.3315 11.6787 10.6533 11.9596 10.2566 11.563L9.09753 10.4039C8.90162 10.7163 8.7345 11.0469 8.59878 11.3917C8.29802 12.156 8.15788 12.974 8.18708 13.7947C8.21629 14.6155 8.41422 15.4215 8.76854 16.1624C9.0167 16.6813 9.33787 17.1606 9.72126 17.586C13.8371 16.9939 17 13.453 17 9.17341C17 4.47915 13.1944 0.673706 8.5 0.673706C3.91065 0.673706 0.170802 4.31071 0.0056868 8.85957H0V9.17341V25.3263C3.37192 25.3263 6.12476 22.6757 6.28858 19.3444Z" fill="#171719"/>
<path fill-rule="evenodd" clip-rule="evenodd" d="M88.9015 18.632C87.6401 18.632 86.7088 18.544 86.1075 18.368C85.5061 18.1773 85.0881 17.8253 84.8535 17.312C84.6188 16.7986 84.5015 15.9993 84.5015 14.914V10.756C84.5015 9.58263 84.8315 8.75396 85.4915 8.26996C86.1661 7.78596 87.2515 7.54396 88.7475 7.54396C89.4515 7.54396 90.0015 7.58796 90.3975 7.67596C90.8081 7.7493 91.1381 7.88863 91.3875 8.09396C91.6368 8.28463 91.8935 8.57063 92.1575 8.95196V3.01196H95.3695V18.412H92.2675V17.202C92.0035 17.6273 91.7615 17.928 91.5415 18.104C91.3361 18.2653 91.0428 18.39 90.6615 18.478C90.2655 18.5806 89.6788 18.632 88.9015 18.632ZM89.7155 16.63C90.4341 16.63 90.9621 16.5933 91.2995 16.52C91.6368 16.4466 91.8641 16.3146 91.9815 16.124C92.0988 15.9186 92.1575 15.618 92.1575 15.222V10.932C92.1575 10.5653 92.0915 10.2866 91.9595 10.096C91.8421 9.89063 91.6221 9.74396 91.2995 9.65596C90.9915 9.56796 90.5221 9.52396 89.8915 9.52396C89.2168 9.52396 88.7328 9.56796 88.4395 9.65596C88.1461 9.7293 87.9481 9.86863 87.8455 10.074C87.7575 10.2646 87.7135 10.5873 87.7135 11.042V15.112C87.7135 15.5226 87.7575 15.838 87.8455 16.058C87.9481 16.2633 88.1388 16.41 88.4175 16.498C88.6961 16.586 89.1288 16.63 89.7155 16.63Z" fill="#171719"/>
<path fill-rule="evenodd" clip-rule="evenodd" d="M98.9642 18.3679C99.4628 18.5439 100.211 18.6319 101.208 18.6319C102.396 18.6319 103.203 18.5366 103.628 18.3459C104.053 18.1699 104.391 17.8693 104.64 17.4439V18.4119H107.786V11.0859C107.786 10.1326 107.625 9.40661 107.302 8.90794C106.979 8.40928 106.444 8.05728 105.696 7.85194C104.963 7.64661 103.914 7.54395 102.55 7.54395C100.995 7.54395 99.6388 7.61728 98.4802 7.76394V9.78794C100.064 9.61194 101.311 9.52394 102.22 9.52394C102.88 9.52394 103.371 9.56795 103.694 9.65594C104.031 9.74395 104.259 9.89795 104.376 10.1179C104.508 10.3379 104.574 10.6753 104.574 11.1299V11.8559H100.966C100.13 11.8559 99.4702 11.9659 98.9862 12.1859C98.5168 12.3913 98.1722 12.7359 97.9522 13.2199C97.7468 13.7039 97.6442 14.3713 97.6442 15.2219C97.6442 16.1753 97.7395 16.8939 97.9302 17.3779C98.1355 17.8473 98.4802 18.1773 98.9642 18.3679ZM103.848 16.5639C103.569 16.6079 103.107 16.6299 102.462 16.6299C101.92 16.6299 101.538 16.6006 101.318 16.5419C101.113 16.4833 100.973 16.3586 100.9 16.1679C100.827 15.9773 100.79 15.6399 100.79 15.1559C100.79 14.6573 100.827 14.3126 100.9 14.1219C100.973 13.9166 101.113 13.7846 101.318 13.7259C101.523 13.6526 101.875 13.6159 102.374 13.6159H104.574V15.6839C104.574 15.8893 104.545 16.0433 104.486 16.1459C104.427 16.2779 104.354 16.3733 104.266 16.4319C104.193 16.4906 104.053 16.5346 103.848 16.5639Z" fill="#171719"/>
<path d="M109.38 7.76392L113.626 18.3239L111.69 22.9879H114.946L120.776 7.76392H117.454L115.276 15.2879L112.878 7.76392H109.38Z" fill="#171719"/>
<path fill-rule="evenodd" clip-rule="evenodd" d="M75.2659 18.5659C75.6913 18.6099 76.2339 18.6319 76.8939 18.6319C77.5099 18.6319 78.0379 18.6099 78.4779 18.5659C78.9619 18.5219 79.4533 18.4266 79.9519 18.2799C80.4653 18.1186 80.8686 17.9133 81.1619 17.6639C81.4993 17.3853 81.7706 16.9966 81.9759 16.4979C82.1959 15.9993 82.3059 15.4199 82.3059 14.7599V11.6139C82.3059 10.8806 82.1959 10.2499 81.9759 9.72194C81.7413 9.20861 81.4553 8.81261 81.1179 8.53395C80.7953 8.25528 80.3699 8.03528 79.8419 7.87394C79.3579 7.72728 78.9106 7.63928 78.4999 7.60994C78.1039 7.56594 77.5686 7.54395 76.8939 7.54395C76.4393 7.54395 75.9333 7.55861 75.3759 7.58794C74.8919 7.63194 74.3933 7.74194 73.8799 7.91794C73.3813 8.07928 72.9779 8.28461 72.6699 8.53395C72.3179 8.82728 72.0319 9.23795 71.8119 9.76595C71.5919 10.2939 71.4819 10.9099 71.4819 11.6139V14.7599C71.4819 15.4493 71.5919 16.0359 71.8119 16.5199C72.0319 17.0186 72.3033 17.4073 72.6259 17.6859C72.9486 17.9499 73.3739 18.1553 73.9019 18.3019C74.3859 18.4339 74.8406 18.5219 75.2659 18.5659ZM78.2579 16.4979C77.9499 16.5859 77.4953 16.6299 76.8939 16.6299C76.2926 16.6299 75.8379 16.5859 75.5299 16.4979C75.2219 16.3953 75.0019 16.2413 74.8699 16.0359C74.7526 15.8306 74.6939 15.5299 74.6939 15.1339V11.1079C74.6939 10.5213 74.8479 10.1106 75.1559 9.87595C75.4639 9.64128 76.0433 9.52394 76.8939 9.52394C77.7446 9.52394 78.3239 9.64128 78.6319 9.87595C78.9399 10.1106 79.0939 10.5213 79.0939 11.1079V15.1339C79.0939 15.5299 79.0279 15.8306 78.8959 16.0359C78.7786 16.2413 78.5659 16.3953 78.2579 16.4979Z" fill="#171719"/>
<path d="M68.1549 18.6321C67.6123 18.6321 67.1576 18.6101 66.7909 18.5661C66.4243 18.5221 66.0576 18.4341 65.6909 18.3021C65.2803 18.1701 64.9429 17.9867 64.6789 17.7521C64.4296 17.5174 64.2243 17.1947 64.0629 16.7841C63.8869 16.3587 63.7989 15.8674 63.7989 15.3101V9.74408H61.6429V7.76408H63.7989V4.68408H67.0109V7.76408H69.9369V9.74408H67.0109V14.7601C67.0109 15.2734 67.0549 15.6621 67.1429 15.9261C67.2309 16.1754 67.3996 16.3587 67.6489 16.4761C67.8983 16.5787 68.2796 16.6301 68.7929 16.6301C68.9983 16.6301 69.3796 16.5934 69.9369 16.5201V18.5221C69.2476 18.5954 68.6536 18.6321 68.1549 18.6321Z" fill="#171719"/>
<path d="M49.8469 7.76392L54.0929 18.3239L52.1569 22.9879H55.4129L61.2429 7.76392H57.9209L55.7429 15.2879L53.3449 7.76392H49.8469Z" fill="#171719"/>
<path fill-rule="evenodd" clip-rule="evenodd" d="M41.675 18.6319C40.6776 18.6319 39.9296 18.5439 39.431 18.3679C38.947 18.1773 38.6023 17.8473 38.397 17.3779C38.2063 16.8939 38.111 16.1753 38.111 15.2219C38.111 14.3713 38.2136 13.7039 38.419 13.2199C38.639 12.7359 38.9836 12.3913 39.453 12.1859C39.937 11.9659 40.597 11.8559 41.433 11.8559H45.041V11.1299C45.041 10.6753 44.975 10.3379 44.843 10.1179C44.7256 9.89795 44.4983 9.74395 44.161 9.65594C43.8383 9.56795 43.347 9.52394 42.687 9.52394C41.7776 9.52394 40.531 9.61194 38.947 9.78794V7.76394C40.1056 7.61728 41.4623 7.54395 43.017 7.54395C44.381 7.54395 45.4296 7.64661 46.163 7.85194C46.911 8.05728 47.4463 8.40928 47.769 8.90794C48.0916 9.40661 48.253 10.1326 48.253 11.0859V18.4119H45.107V17.4439C44.8576 17.8693 44.5203 18.1699 44.095 18.3459C43.6696 18.5366 42.863 18.6319 41.675 18.6319ZM42.929 16.6299C43.5743 16.6299 44.0363 16.6079 44.315 16.5639C44.5203 16.5346 44.6596 16.4906 44.733 16.4319C44.821 16.3733 44.8943 16.2779 44.953 16.1459C45.0116 16.0433 45.041 15.8893 45.041 15.6839V13.6159H42.841C42.3423 13.6159 41.9903 13.6526 41.785 13.7259C41.5796 13.7846 41.4403 13.9166 41.367 14.1219C41.2936 14.3126 41.257 14.6573 41.257 15.1559C41.257 15.6399 41.2936 15.9773 41.367 16.1679C41.4403 16.3586 41.5796 16.4833 41.785 16.5419C42.005 16.6006 42.3863 16.6299 42.929 16.6299Z" fill="#171719"/>
<path fill-rule="evenodd" clip-rule="evenodd" d="M30.72 4.13403H25V18.412H28.432V13.77H30.324C31.8053 13.77 32.9787 13.66 33.844 13.44C34.724 13.22 35.362 12.846 35.758 12.318C36.1687 11.79 36.374 11.0567 36.374 10.118V7.41203C36.374 6.56137 36.1833 5.90137 35.802 5.43203C35.4353 4.94803 34.8413 4.6107 34.02 4.42003C33.2133 4.22937 32.1133 4.13403 30.72 4.13403ZM32.502 11.108C32.1353 11.3134 31.5047 11.416 30.61 11.416H28.432V6.57603H30.566C31.534 6.57603 32.1867 6.64937 32.524 6.79603C32.876 6.9427 33.052 7.2507 33.052 7.72003V10.008C33.052 10.5214 32.8687 10.888 32.502 11.108Z" fill="#171719"/>
</svg>
