<svg width="301" height="300" viewBox="0 0 301 300" fill="none" xmlns="http://www.w3.org/2000/svg">
<path opacity="0.4" d="M22.6196 26.8579C22.4916 25.9301 23.595 25.3512 24.2857 25.9837L27.503 28.9303C27.8052 29.2071 28.2457 29.2714 28.6145 29.0927L32.5404 27.1901C33.3833 26.7816 34.2748 27.652 33.8866 28.5044L32.0785 32.4748C31.9087 32.8477 31.9836 33.2866 32.2675 33.5821L35.2902 36.7279C35.9391 37.4033 35.3868 38.5202 34.4562 38.4144L30.1214 37.9217C29.7142 37.8754 29.32 38.0822 29.1267 38.4436L27.0689 42.2905C26.6272 43.1163 25.3942 42.9362 25.2073 42.0185L24.3363 37.7436C24.2545 37.342 23.936 37.031 23.5326 36.9588L19.2381 36.1905C18.3161 36.0256 18.1065 34.7973 18.9215 34.3359L22.718 32.1866C23.0747 31.9847 23.272 31.5856 23.216 31.1797L22.6196 26.8579Z" stroke="#6C7CA8" stroke-width="2"/>
<path opacity="0.2" d="M204.442 75.4782C205.319 75.1501 206.125 76.0998 205.659 76.9123L204.36 79.1786C204.156 79.5341 204.19 79.978 204.445 80.2987L206.071 82.343C206.655 83.0758 206.001 84.1364 205.084 83.9444L202.527 83.4087C202.126 83.3247 201.714 83.4939 201.488 83.8357L200.046 86.0144C199.53 86.7955 198.319 86.5013 198.218 85.5701L197.938 82.9728C197.893 82.5653 197.605 82.226 197.21 82.1165L194.693 81.4188C193.79 81.1687 193.696 79.9263 194.55 79.5428L196.934 78.4732C197.308 78.3054 197.541 77.9265 197.524 77.5171L197.409 74.9071C197.368 73.9714 198.521 73.4978 199.149 74.192L200.903 76.1283C201.178 76.432 201.611 76.5372 201.995 76.3936L204.442 75.4782Z" stroke="#6C7CA8" stroke-width="2"/>
<ellipse opacity="0.7" cx="148" cy="236" rx="33.5" ry="6" fill="#EDF0F8"/>
<path opacity="0.2" fill-rule="evenodd" clip-rule="evenodd" d="M236 60C236 59.4477 235.552 59 235 59C234.448 59 234 59.4477 234 60V65.5H228.5C227.948 65.5 227.5 65.9477 227.5 66.5C227.5 67.0523 227.948 67.5 228.5 67.5H234V73C234 73.5523 234.448 74 235 74C235.552 74 236 73.5523 236 73V67.5H241.5C242.052 67.5 242.5 67.0523 242.5 66.5C242.5 65.9477 242.052 65.5 241.5 65.5H236V60Z" fill="#6C7CA8"/>
<path opacity="0.21" fill-rule="evenodd" clip-rule="evenodd" d="M255.41 217.718C255.8 217.327 255.8 216.694 255.41 216.303C255.019 215.913 254.386 215.913 253.996 216.303L250.106 220.192L246.217 216.303C245.827 215.913 245.194 215.913 244.803 216.303C244.413 216.694 244.413 217.327 244.803 217.718L248.692 221.607L244.803 225.496C244.413 225.886 244.413 226.519 244.803 226.91C245.194 227.3 245.827 227.3 246.217 226.91L250.106 223.021L253.996 226.91C254.386 227.3 255.019 227.3 255.41 226.91C255.8 226.519 255.8 225.886 255.41 225.496L251.521 221.607L255.41 217.718Z" fill="#6C7CA8"/>
<circle opacity="0.4" cx="59" cy="232.5" r="6.5" stroke="#6C7CA8" stroke-width="2"/>
<circle opacity="0.4" cx="290.5" cy="84" r="4" stroke="#6C7CA8" stroke-width="2"/>
<circle opacity="0.4" cx="194.5" cy="182" r="4" stroke="#6C7CA8" stroke-width="2"/>
<rect opacity="0.4" x="52.6216" y="137" width="10.7704" height="10.7704" rx="2" transform="rotate(48.9445 52.6216 137)" stroke="#6C7CA8" stroke-width="2"/>
<path fill-rule="evenodd" clip-rule="evenodd" d="M157.5 110.575H138.5V234.59C138.5 235.933 142.753 237.021 148 237.021C153.247 237.021 157.5 235.933 157.5 234.59V110.575Z" fill="#C6CDE0"/>
<rect x="138.5" y="131.245" width="19" height="3.64748" fill="#9BA8CB"/>
<path d="M73.5 95.9856C73.5 75.8411 89.8303 59.5107 109.975 59.5107H197.514V132.46H73.5V95.9856Z" fill="#EDF0F8"/>
<path d="M163.471 89.9064C163.471 73.1194 177.08 59.5107 193.867 59.5107C210.654 59.5107 224.263 73.1194 224.263 89.9064V132.46H163.471V89.9064Z" fill="#C6CDE0"/>
<path fill-rule="evenodd" clip-rule="evenodd" d="M193.867 59.5107C177.08 59.5107 163.471 73.1194 163.471 89.9064V132.46H170.431C169.624 129.042 169.198 125.477 169.198 121.813C169.198 96.2965 189.883 75.6115 215.399 75.6115C217.249 75.6115 219.074 75.7202 220.867 75.9316C215.807 66.1761 205.615 59.5107 193.867 59.5107Z" fill="#9BA8CB"/>
<path d="M164.687 89.9064C164.687 73.7908 177.751 60.7266 193.867 60.7266C209.982 60.7266 223.047 73.7908 223.047 89.9064V131.245H164.687V89.9064Z" stroke="#C6CDE0" stroke-width="2.43165"/>
<circle cx="125.996" cy="95.9854" r="8.51079" fill="#9BA8CB"/>
<circle cx="125.496" cy="95.4854" r="8.01079" fill="#C6CDE0"/>
<rect x="163.471" y="127.597" width="79.0288" height="4.86331" fill="#EDF0F8"/>
<path fill-rule="evenodd" clip-rule="evenodd" d="M140.095 51H125.781V51H124.565V95.9857H126.997V61.9424H140.095C141.144 61.9424 141.701 60.703 141.004 59.9189L138.657 57.279C138.248 56.8183 138.248 56.1241 138.657 55.6635L141.004 53.0236C141.701 52.2395 141.144 51 140.095 51Z" fill="#C6CDE0"/>
<path opacity="0.6" d="M124.565 62H126.997V64H124.565V62Z" fill="#9BA8CB"/>
<g filter="url(#filter0_i_1078_6444)">
<path d="M165.903 83.8271H199.946C201.289 83.8271 202.378 84.9158 202.378 86.2588V116.654C202.378 117.997 201.289 119.086 199.946 119.086H165.903V83.8271Z" fill="#EDF0F8"/>
</g>
<path opacity="0.3" d="M165.903 105.712L168.942 108.144L198.516 86.6358C200.123 85.4669 202.378 86.615 202.378 88.6024V116.654C202.378 117.997 201.289 119.086 199.946 119.086H165.903V105.712Z" fill="#C6CDE0"/>
<path fill-rule="evenodd" clip-rule="evenodd" d="M165.903 105.964V104.244L169.009 107.351L201.45 84.3477C201.771 84.6007 202.027 84.9329 202.188 85.3149L169.294 108.639L168.513 108.573L165.903 105.964Z" fill="#C6CDE0"/>
<defs>
<filter id="filter0_i_1078_6444" x="165.903" y="83.8271" width="36.4746" height="35.2588" filterUnits="userSpaceOnUse" color-interpolation-filters="sRGB">
<feFlood flood-opacity="0" result="BackgroundImageFix"/>
<feBlend mode="normal" in="SourceGraphic" in2="BackgroundImageFix" result="shape"/>
<feColorMatrix in="SourceAlpha" type="matrix" values="0 0 0 0 0 0 0 0 0 0 0 0 0 0 0 0 0 0 127 0" result="hardAlpha"/>
<feOffset dx="-1.21583" dy="-1.21583"/>
<feComposite in2="hardAlpha" operator="arithmetic" k2="-1" k3="1"/>
<feColorMatrix type="matrix" values="0 0 0 0 0.607843 0 0 0 0 0.658824 0 0 0 0 0.796078 0 0 0 0.17 0"/>
<feBlend mode="normal" in2="shape" result="effect1_innerShadow_1078_6444"/>
</filter>
</defs>
</svg>
