<svg width="12" height="13" viewBox="0 0 12 13" fill="none" xmlns="http://www.w3.org/2000/svg">
<path fill-rule="evenodd" clip-rule="evenodd" d="M6 11.5C8.76142 11.5 11 9.26142 11 6.5C11 3.73858 8.76142 1.5 6 1.5C3.23858 1.5 1 3.73858 1 6.5C1 9.26142 3.23858 11.5 6 11.5ZM5.7475 8.14003L7.8775 6.17003C8.1775 5.89003 8.1975 5.41003 7.9175 5.11003C7.6375 4.81003 7.1575 4.79003 6.8575 5.07003L5.2575 6.55003L4.7775 6.07003C4.4875 5.78003 4.0075 5.78003 3.7175 6.07003C3.4275 6.36003 3.4275 6.84003 3.7175 7.13003L4.7075 8.12003C4.8575 8.27003 5.0475 8.34003 5.2375 8.34003C5.4175 8.34003 5.6075 8.27003 5.7475 8.14003Z" fill="#2A9604"/>
</svg>
