<svg width="56" height="57" viewBox="0 0 56 57" fill="none" xmlns="http://www.w3.org/2000/svg">
<rect y="0.5" width="56" height="56" rx="28" fill="white"/>
<path d="M28.6778 36.4571C28.9525 36.521 28.9777 36.8808 28.7101 36.97L27.1301 37.49C23.1601 38.77 21.0701 37.7 19.7801 33.73L18.5001 29.78C17.2201 25.81 18.2801 23.71 22.2501 22.43L22.7741 22.2565C23.177 22.1231 23.569 22.5272 23.4546 22.9358C23.3979 23.1384 23.3434 23.3498 23.2901 23.57L22.3101 27.76C21.2101 32.47 22.8201 35.07 27.5301 36.19L28.6778 36.4571Z" fill="#171719"/>
<path d="M33.1699 19.71L31.4999 19.32C28.1599 18.53 26.1699 19.18 24.9999 21.6C24.6999 22.21 24.4599 22.95 24.2599 23.8L23.2799 27.99C22.2999 32.17 23.5899 34.23 27.7599 35.22L29.4399 35.62C30.0199 35.76 30.5599 35.85 31.0599 35.89C34.1799 36.19 35.8399 34.73 36.6799 31.12L37.6599 26.94C38.6399 22.76 37.3599 20.69 33.1699 19.71ZM31.2899 29.83C31.1999 30.17 30.8999 30.39 30.5599 30.39C30.4999 30.39 30.4399 30.38 30.3699 30.37L27.4599 29.63C27.0599 29.53 26.8199 29.12 26.9199 28.72C27.0199 28.32 27.4299 28.08 27.8299 28.18L30.7399 28.92C31.1499 29.02 31.3899 29.43 31.2899 29.83ZM34.2199 26.45C34.1299 26.79 33.8299 27.01 33.4899 27.01C33.4299 27.01 33.3699 27 33.2999 26.99L28.4499 25.76C28.0499 25.66 27.8099 25.25 27.9099 24.85C28.0099 24.45 28.4199 24.21 28.8199 24.31L33.6699 25.54C34.0799 25.63 34.3199 26.04 34.2199 26.45Z" fill="#171719"/>
</svg>
