<svg width="12" height="13" viewBox="0 0 12 13" fill="none" xmlns="http://www.w3.org/2000/svg">
<path fill-rule="evenodd" clip-rule="evenodd" d="M6 11.5C8.76142 11.5 11 9.26142 11 6.5C11 3.73858 8.76142 1.5 6 1.5C3.23858 1.5 1 3.73858 1 6.5C1 9.26142 3.23858 11.5 6 11.5ZM6.58598 7.39C6.80598 7.26 6.94598 7.01 6.94598 6.75V4.25C6.94598 3.84 6.60598 3.5 6.19598 3.5C5.78598 3.5 5.44598 3.84 5.45598 4.25V6.33L4.56598 6.86C4.20598 7.07 4.09598 7.53 4.30598 7.89C4.44598 8.12 4.69598 8.25 4.94598 8.25C5.07598 8.25 5.21598 8.22 5.33598 8.14L6.58598 7.39Z" fill="#606F97"/>
</svg>
