<svg width="20" height="20" viewBox="0 0 20 20" fill="none" xmlns="http://www.w3.org/2000/svg">
<path d="M15.0004 5.96663C14.9504 5.9583 14.8921 5.9583 14.8421 5.96663C13.6921 5.92496 12.7754 4.98329 12.7754 3.81663C12.7754 2.62496 13.7337 1.66663 14.9254 1.66663C16.1171 1.66663 17.0754 2.63329 17.0754 3.81663C17.0671 4.98329 16.1504 5.92496 15.0004 5.96663Z" stroke="#171719" stroke-width="2" stroke-linecap="round" stroke-linejoin="round"/>
<path d="M14.1422 12.0333C15.2839 12.225 16.5422 12.025 17.4255 11.4333C18.6005 10.65 18.6005 9.36664 17.4255 8.58331C16.5339 7.99164 15.2589 7.79163 14.1172 7.99163" stroke="#171719" stroke-width="2" stroke-linecap="round" stroke-linejoin="round"/>
<path d="M4.97539 5.96663C5.02539 5.9583 5.08372 5.9583 5.13372 5.96663C6.28372 5.92496 7.20039 4.98329 7.20039 3.81663C7.20039 2.62496 6.24206 1.66663 5.05039 1.66663C3.85873 1.66663 2.90039 2.63329 2.90039 3.81663C2.90872 4.98329 3.82539 5.92496 4.97539 5.96663Z" stroke="#171719" stroke-width="2" stroke-linecap="round" stroke-linejoin="round"/>
<path d="M5.83353 12.0333C4.69186 12.225 3.43353 12.025 2.5502 11.4333C1.3752 10.65 1.3752 9.36664 2.5502 8.58331C3.44186 7.99164 4.71686 7.79163 5.85853 7.99163" stroke="#171719" stroke-width="2" stroke-linecap="round" stroke-linejoin="round"/>
<path d="M10.0004 12.1916C9.95039 12.1833 9.89206 12.1833 9.84206 12.1916C8.69206 12.1499 7.77539 11.2083 7.77539 10.0416C7.77539 8.84994 8.73372 7.8916 9.92539 7.8916C11.1171 7.8916 12.0754 8.85827 12.0754 10.0416C12.0671 11.2083 11.1504 12.1583 10.0004 12.1916Z" stroke="#171719" stroke-width="2" stroke-linecap="round" stroke-linejoin="round"/>
<path d="M7.57559 14.8167C6.40059 15.6 6.40059 16.8833 7.57559 17.6667C8.90892 18.5583 11.0923 18.5583 12.4256 17.6667C13.6006 16.8833 13.6006 15.6 12.4256 14.8167C11.1006 13.9333 8.90892 13.9333 7.57559 14.8167Z" stroke="#171719" stroke-width="2" stroke-linecap="round" stroke-linejoin="round"/>
</svg>
