<svg width="12" height="12" viewBox="0 0 12 12" fill="none" xmlns="http://www.w3.org/2000/svg">
<path fill-rule="evenodd" clip-rule="evenodd" d="M6 11C8.76142 11 11 8.76142 11 6C11 3.23858 8.76142 1 6 1C3.23858 1 1 3.23858 1 6C1 8.76142 3.23858 11 6 11ZM7.9101 5.72C8.1801 5.72 8.4001 5.51 8.4001 5.23H8.3901V5.13C8.3901 4.48 7.8701 3.96 7.2301 3.96H5.2201C5.3201 3.78 5.3001 3.54 5.1401 3.39C4.9601 3.19 4.6501 3.19 4.4601 3.39L3.7401 4.1C3.70167 4.13074 3.67505 4.17921 3.65117 4.22269C3.64398 4.23579 3.63704 4.24843 3.6301 4.26C3.5901 4.38 3.5901 4.51 3.6301 4.63C3.6601 4.69 3.7001 4.75 3.7401 4.79L4.4601 5.51C4.5501 5.6 4.6801 5.65 4.8001 5.65C4.9401 5.65 5.0601 5.6 5.1501 5.51C5.3101 5.35 5.3301 5.12 5.2301 4.93H7.2301C7.3401 4.93 7.4201 5.02 7.4201 5.13V5.23C7.4201 5.51 7.6401 5.72 7.9101 5.72ZM6.8501 8.62C6.9401 8.72 7.0701 8.76 7.2001 8.76C7.3201 8.76 7.4501 8.71 7.5401 8.61L8.2601 7.9C8.3001 7.86 8.3401 7.8 8.3701 7.75C8.4101 7.63 8.4101 7.5 8.3701 7.38C8.3401 7.32 8.3001 7.26 8.2601 7.22L7.5401 6.5C7.3601 6.31 7.0501 6.31 6.8601 6.5C6.7001 6.66 6.6801 6.89 6.7801 7.08H4.7701C4.6601 7.08 4.5801 6.99 4.5801 6.88V6.78C4.5801 6.5 4.3601 6.29 4.0901 6.29C3.8201 6.29 3.6001 6.5 3.6001 6.78V6.88C3.6001 7.53 4.1201 8.05 4.7601 8.05H6.7701C6.6701 8.23 6.6901 8.47 6.8501 8.62Z" fill="#606F97"/>
</svg>
