<svg width="24" height="24" viewBox="0 0 24 24" fill="none" xmlns="http://www.w3.org/2000/svg">
<path fill-rule="evenodd" clip-rule="evenodd" d="M10 2.25H9.97262C9.06393 2.25 8.34375 2.24999 7.76032 2.2898C7.16431 2.33047 6.65641 2.41517 6.18225 2.61157C5.01837 3.09367 4.09367 4.01837 3.61157 5.18225C3.41517 5.65641 3.33047 6.16431 3.2898 6.76032C3.24999 7.34375 3.25 8.06393 3.25 8.97262V9V11V11.0274C3.25 11.9361 3.24999 12.6562 3.2898 13.2397C3.33047 13.8357 3.41517 14.3436 3.61157 14.8177C4.09367 15.9816 5.01837 16.9063 6.18225 17.3884C6.65641 17.5848 7.16431 17.6695 7.76032 17.7102C8.34374 17.75 9.0639 17.75 9.97256 17.75H9.97262H10H10.0274H10.0274C10.9361 17.75 11.6563 17.75 12.2397 17.7102C12.8357 17.6695 13.3436 17.5848 13.8177 17.3884C14.9816 16.9063 15.9063 15.9816 16.3884 14.8177C16.5848 14.3436 16.6695 13.8357 16.7102 13.2397C16.75 12.6563 16.75 11.9361 16.75 11.0274V11.0274V11V9V8.97262V8.97256C16.75 8.0639 16.75 7.34374 16.7102 6.76032C16.6695 6.16431 16.5848 5.65641 16.3884 5.18225C15.9063 4.01837 14.9816 3.09367 13.8177 2.61157C13.3436 2.41517 12.8357 2.33047 12.2397 2.2898C11.6562 2.24999 10.9361 2.25 10.0274 2.25H10ZM6.75628 3.99739C7.0172 3.88931 7.34279 3.82178 7.86243 3.78632C8.38881 3.75041 9.05786 3.75 10 3.75C10.9421 3.75 11.6112 3.75041 12.1376 3.78632C12.6572 3.82178 12.9828 3.88931 13.2437 3.99739C14.0401 4.32725 14.6728 4.95994 15.0026 5.75628C15.1107 6.0172 15.1782 6.34279 15.2137 6.86243C15.2496 7.38881 15.25 8.05786 15.25 9V11C15.25 11.9421 15.2496 12.6112 15.2137 13.1376C15.1782 13.6572 15.1107 13.9828 15.0026 14.2437C14.6728 15.0401 14.0401 15.6728 13.2437 16.0026C12.9828 16.1107 12.6572 16.1782 12.1376 16.2137C11.6112 16.2496 10.9421 16.25 10 16.25C9.05786 16.25 8.38881 16.2496 7.86243 16.2137C7.34279 16.1782 7.0172 16.1107 6.75628 16.0026C5.95994 15.6728 5.32725 15.0401 4.99739 14.2437C4.88931 13.9828 4.82178 13.6572 4.78632 13.1376C4.75041 12.6112 4.75 11.9421 4.75 11V9C4.75 8.05786 4.75041 7.38881 4.78632 6.86243C4.82178 6.34279 4.88931 6.0172 4.99739 5.75628C5.32725 4.95994 5.95994 4.32725 6.75628 3.99739ZM10.1821 20.3884C9.43822 20.0803 8.792 19.5913 8.29663 18.9746C8.88975 19 9.60153 19 10.4799 19H10.7499L10.7562 19.0026C11.0171 19.1107 11.3427 19.1782 11.8623 19.2137C12.3887 19.2496 13.0578 19.25 13.9999 19.25C14.942 19.25 15.6111 19.2496 16.1375 19.2137C16.6571 19.1782 16.9827 19.1107 17.2436 19.0026C18.04 18.6728 18.6726 18.0401 19.0025 17.2437C19.1106 16.9828 19.1781 16.6572 19.2136 16.1376C19.2495 15.6112 19.2499 14.9421 19.2499 14V12C19.2499 11.0579 19.2495 10.3888 19.2136 9.86243C19.1781 9.34279 19.1106 9.0172 19.0025 8.75628C18.7825 8.22507 18.4277 7.76669 17.9795 7.42243C17.9513 6.63898 17.8841 6.05685 17.7242 5.57446C17.7555 5.58637 17.7866 5.59873 17.8176 5.61157C18.9815 6.09367 19.9062 7.01837 20.3883 8.18225C20.5847 8.65641 20.6694 9.16431 20.7101 9.76032C20.7499 10.3437 20.7499 11.0639 20.7499 11.9725V11.9726V11.9726V12V14V14.0274V14.0274V14.0275C20.7499 14.9361 20.7499 15.6563 20.7101 16.2397C20.6694 16.8357 20.5847 17.3436 20.3883 17.8177C19.9062 18.9816 18.9815 19.9063 17.8176 20.3884C17.3435 20.5848 16.8356 20.6695 16.2396 20.7102C15.6562 20.75 14.936 20.75 14.0274 20.75H14.0273H14.0273H13.9999H13.9725H13.9725H13.9724C13.0638 20.75 12.3436 20.75 11.7602 20.7102C11.1642 20.6695 10.6563 20.5848 10.1821 20.3884Z" fill="#1876EE"/>
</svg>
