<svg width="300" height="300" viewBox="0 0 300 300" fill="none" xmlns="http://www.w3.org/2000/svg">
<path opacity="0.4" d="M28.1196 33.8579C27.9916 32.9301 29.095 32.3512 29.7857 32.9837L33.003 35.9303C33.3052 36.2071 33.7457 36.2714 34.1145 36.0927L38.0404 34.1901C38.8833 33.7816 39.7748 34.652 39.3866 35.5044L37.5785 39.4748C37.4087 39.8477 37.4836 40.2866 37.7675 40.5821L40.7902 43.7279C41.4391 44.4033 40.8868 45.5202 39.9562 45.4144L35.6214 44.9217C35.2142 44.8754 34.82 45.0822 34.6267 45.4436L32.5689 49.2905C32.1272 50.1163 30.8942 49.9362 30.7073 49.0185L29.8363 44.7436C29.7545 44.342 29.436 44.031 29.0326 43.9588L24.7381 43.1905C23.8161 43.0256 23.6065 41.7973 24.4215 41.3359L28.218 39.1866C28.5747 38.9847 28.772 38.5856 28.716 38.1797L28.1196 33.8579Z" stroke="#6C7CA8" stroke-width="2"/>
<path opacity="0.2" d="M109.942 238.478C110.819 238.15 111.625 239.1 111.159 239.912L109.86 242.179C109.656 242.534 109.69 242.978 109.945 243.299L111.571 245.343C112.155 246.076 111.501 247.136 110.584 246.944L108.027 246.409C107.626 246.325 107.214 246.494 106.988 246.836L105.546 249.014C105.03 249.796 103.819 249.501 103.718 248.57L103.438 245.973C103.393 245.565 103.105 245.226 102.71 245.117L100.193 244.419C99.2902 244.169 99.196 242.926 100.05 242.543L102.434 241.473C102.808 241.305 103.041 240.926 103.024 240.517L102.909 237.907C102.868 236.971 104.021 236.498 104.649 237.192L106.403 239.128C106.678 239.432 107.111 239.537 107.495 239.394L109.942 238.478Z" stroke="#6C7CA8" stroke-width="2"/>
<ellipse opacity="0.7" cx="150" cy="264.5" rx="55" ry="5.5" fill="#EDF0F8"/>
<path opacity="0.2" fill-rule="evenodd" clip-rule="evenodd" d="M293.5 73C293.5 72.4477 293.052 72 292.5 72C291.948 72 291.5 72.4477 291.5 73V78.5H286C285.448 78.5 285 78.9477 285 79.5C285 80.0523 285.448 80.5 286 80.5H291.5V86C291.5 86.5523 291.948 87 292.5 87C293.052 87 293.5 86.5523 293.5 86V80.5H299C299.552 80.5 300 80.0523 300 79.5C300 78.9477 299.552 78.5 299 78.5H293.5V73Z" fill="#6C7CA8"/>
<path opacity="0.4" fill-rule="evenodd" clip-rule="evenodd" d="M256.91 204.718C257.3 204.327 257.3 203.694 256.91 203.303C256.519 202.913 255.886 202.913 255.496 203.303L251.606 207.192L247.717 203.303C247.327 202.913 246.694 202.913 246.303 203.303C245.913 203.694 245.913 204.327 246.303 204.718L250.192 208.607L246.303 212.496C245.913 212.886 245.913 213.519 246.303 213.91C246.694 214.3 247.327 214.3 247.717 213.91L251.606 210.021L255.496 213.91C255.886 214.3 256.519 214.3 256.91 213.91C257.3 213.519 257.3 212.886 256.91 212.496L253.021 208.607L256.91 204.718Z" fill="#6C7CA8"/>
<circle opacity="0.4" cx="241.5" cy="36.5" r="6.5" stroke="#6C7CA8" stroke-width="2"/>
<circle opacity="0.4" cx="29" cy="186" r="4" stroke="#6C7CA8" stroke-width="2"/>
<circle opacity="0.4" cx="288" cy="255" r="4" stroke="#6C7CA8" stroke-width="2"/>
<rect opacity="0.4" x="68.1216" y="57" width="10.7704" height="10.7704" rx="2" transform="rotate(48.9445 68.1216 57)" stroke="#6C7CA8" stroke-width="2"/>
<path fill-rule="evenodd" clip-rule="evenodd" d="M220 182H80V198C80 205.18 111.34 211 150 211C188.66 211 220 205.18 220 198V182Z" fill="#EDF0F8"/>
<ellipse cx="150" cy="182" rx="70" ry="13" fill="#DAE0F2"/>
<path fill-rule="evenodd" clip-rule="evenodd" d="M211.143 183.5C211.707 183.012 212 182.511 212 182C212 177.029 184.242 173 150 173C115.758 173 88 177.029 88 182C88 182.511 88.2935 183.012 88.8572 183.5C93.7767 179.243 119.279 176 150 176C180.721 176 206.223 179.243 211.143 183.5Z" fill="#C6CDE0"/>
<path fill-rule="evenodd" clip-rule="evenodd" d="M101 207.284V190H99V206.905C99.6528 207.034 100.32 207.16 101 207.284ZM97 206.493V189H95V206.043C95.6488 206.195 96.3157 206.345 97 206.493ZM93 205.548V189H91V204.999C91.6421 205.185 92.309 205.368 93 205.548ZM89 204.381V187H87V203.673C87.6285 203.914 88.2957 204.15 89 204.381Z" fill="#DAE0F2"/>
<path fill-rule="evenodd" clip-rule="evenodd" d="M220 163H80V179C80 186.18 111.34 192 150 192C188.66 192 220 186.18 220 179V163Z" fill="#EDF0F8"/>
<ellipse cx="150" cy="163" rx="70" ry="13" fill="#DAE0F2"/>
<path fill-rule="evenodd" clip-rule="evenodd" d="M211.143 164.5C211.707 164.012 212 163.511 212 163C212 158.029 184.242 154 150 154C115.758 154 88 158.029 88 163C88 163.511 88.2935 164.012 88.8572 164.5C93.7767 160.243 119.279 157 150 157C180.721 157 206.223 160.243 211.143 164.5Z" fill="#C6CDE0"/>
<path fill-rule="evenodd" clip-rule="evenodd" d="M101 188.284V171H99V187.905C99.6528 188.034 100.32 188.16 101 188.284ZM97 187.493V170H95V187.043C95.6488 187.195 96.3157 187.345 97 187.493ZM93 186.548V170H91V185.999C91.6421 186.185 92.309 186.368 93 186.548ZM89 185.381V168H87V184.673C87.6285 184.914 88.2957 185.15 89 185.381Z" fill="#DAE0F2"/>
<path fill-rule="evenodd" clip-rule="evenodd" d="M220 136H80V152C80 159.18 111.34 165 150 165C188.66 165 220 159.18 220 152V136Z" fill="#EDF0F8"/>
<ellipse cx="150" cy="136" rx="70" ry="13" fill="#DAE0F2"/>
<path fill-rule="evenodd" clip-rule="evenodd" d="M211.143 137.5C211.707 137.012 212 136.511 212 136C212 131.029 184.242 127 150 127C115.758 127 88 131.029 88 136C88 136.511 88.2935 137.012 88.8572 137.5C93.7767 133.243 119.279 130 150 130C180.721 130 206.223 133.243 211.143 137.5Z" fill="#C6CDE0"/>
<path fill-rule="evenodd" clip-rule="evenodd" d="M101 161.284V144H99V160.905C99.6528 161.034 100.32 161.16 101 161.284ZM97 160.493V143H95V160.043C95.6488 160.195 96.3157 160.345 97 160.493ZM93 159.548V143H91V158.999C91.6421 159.185 92.309 159.368 93 159.548ZM89 158.381V141H87V157.673C87.6285 157.914 88.2957 158.15 89 158.381Z" fill="#DAE0F2"/>
<path fill-rule="evenodd" clip-rule="evenodd" d="M220 109H80V125C80 132.18 111.34 138 150 138C188.66 138 220 132.18 220 125V109Z" fill="#EDF0F8"/>
<ellipse cx="150" cy="109" rx="70" ry="13" fill="#DAE0F2"/>
<path fill-rule="evenodd" clip-rule="evenodd" d="M211.143 110.5C211.707 110.012 212 109.511 212 109C212 104.029 184.242 100 150 100C115.758 100 88 104.029 88 109C88 109.511 88.2935 110.012 88.8572 110.5C93.7767 106.243 119.279 103 150 103C180.721 103 206.223 106.243 211.143 110.5Z" fill="#C6CDE0"/>
<path fill-rule="evenodd" clip-rule="evenodd" d="M101 134.284V117H99V133.905C99.6528 134.034 100.32 134.16 101 134.284ZM97 133.493V116H95V133.043C95.6488 133.195 96.3157 133.345 97 133.493ZM93 132.548V116H91V131.999C91.6421 132.185 92.309 132.368 93 132.548ZM89 131.381V114H87V130.673C87.6285 130.914 88.2957 131.15 89 131.381Z" fill="#DAE0F2"/>
<path d="M201 225C215.873 225 228 213.173 228 198.5C228 183.827 215.873 172 201 172C186.127 172 174 183.827 174 198.5C174 213.173 186.127 225 201 225Z" fill="#EDF0F8" stroke="white" stroke-width="4"/>
<g filter="url(#filter0_i_1078_5189)">
<path fill-rule="evenodd" clip-rule="evenodd" d="M189.429 194.554C188.075 195.907 188.075 198.102 189.429 199.456L196.359 206.386C196.361 206.389 196.364 206.391 196.366 206.394C197.382 207.409 198.87 207.663 200.122 207.155C200.539 206.986 200.93 206.732 201.269 206.394L214.282 193.38C215.636 192.027 215.636 189.832 214.282 188.478C212.928 187.124 210.733 187.124 209.379 188.478L198.818 199.04L194.331 194.554C192.978 193.2 190.783 193.2 189.429 194.554Z" fill="#C6CDE0"/>
</g>
<defs>
<filter id="filter0_i_1078_5189" x="188.414" y="187.462" width="26.8838" height="19.9468" filterUnits="userSpaceOnUse" color-interpolation-filters="sRGB">
<feFlood flood-opacity="0" result="BackgroundImageFix"/>
<feBlend mode="normal" in="SourceGraphic" in2="BackgroundImageFix" result="shape"/>
<feColorMatrix in="SourceAlpha" type="matrix" values="0 0 0 0 0 0 0 0 0 0 0 0 0 0 0 0 0 0 127 0" result="hardAlpha"/>
<feOffset dx="-2" dy="-2"/>
<feComposite in2="hardAlpha" operator="arithmetic" k2="-1" k3="1"/>
<feColorMatrix type="matrix" values="0 0 0 0 0.607843 0 0 0 0 0.658824 0 0 0 0 0.796078 0 0 0 1 0"/>
<feBlend mode="normal" in2="shape" result="effect1_innerShadow_1078_5189"/>
</filter>
</defs>
</svg>
