<svg width="24" height="24" viewBox="0 0 24 24" fill="none" xmlns="http://www.w3.org/2000/svg">
<path fill-rule="evenodd" clip-rule="evenodd" d="M4 11C4 7.13401 7.13401 4 11 4C14.866 4 18 7.13401 18 11C18 14.866 14.866 18 11 18C7.13401 18 4 14.866 4 11ZM11 2C6.02944 2 2 6.02944 2 11C2 15.9706 6.02944 20 11 20C13.2307 20 15.2719 19.1884 16.8444 17.8444L20.2426 21.2426C20.6332 21.6332 21.2663 21.6332 21.6569 21.2426C22.0474 20.8521 22.0474 20.219 21.6569 19.8284L18.2126 16.3841C19.3352 14.8827 20 13.019 20 11C20 6.02944 15.9706 2 11 2Z" fill="#606F97"/>
</svg>
