<svg width="20" height="20" viewBox="0 0 20 20" fill="none" xmlns="http://www.w3.org/2000/svg">
<path d="M3.8457 9.46582V12.5415C3.8457 15.6171 5.07873 16.8501 8.15444 16.8501H11.8467C14.9224 16.8501 16.1554 15.6171 16.1554 12.5415V9.46582" stroke="#171719" stroke-width="2" stroke-linecap="round" stroke-linejoin="round"/>
<path d="M10.0036 10.0001C11.2571 10.0001 12.1819 8.97949 12.0586 7.72595L11.6065 3.15015H8.40749L7.94853 7.72595C7.82523 8.97949 8.75 10.0001 10.0036 10.0001Z" stroke="#171719" stroke-width="2" stroke-linecap="round" stroke-linejoin="round"/>
<path d="M14.326 10.0001C15.7097 10.0001 16.7236 8.87674 16.5866 7.4999L16.3947 5.61615C16.1481 3.83515 15.4631 3.15015 13.6684 3.15015H11.5791L12.0586 7.95199C12.1751 9.08224 13.1957 10.0001 14.326 10.0001Z" stroke="#171719" stroke-width="2" stroke-linecap="round" stroke-linejoin="round"/>
<path d="M5.64697 9.99978C6.77724 9.99978 7.79792 9.08188 7.90752 7.95163L8.05822 6.43778L8.38703 3.14978H6.29774C4.503 3.14978 3.81798 3.83478 3.57138 5.61578L3.38643 7.49953C3.24942 8.87638 4.26324 9.99978 5.64697 9.99978Z" stroke="#171719" stroke-width="2" stroke-linecap="round" stroke-linejoin="round"/>
<path d="M10.0036 13.425C8.85958 13.425 8.29102 13.9936 8.29102 15.1375V16.85H11.7161V15.1375C11.7161 13.9936 11.1475 13.425 10.0036 13.425Z" stroke="#171719" stroke-width="2" stroke-linecap="round" stroke-linejoin="round"/>
</svg>
