<svg width="20" height="20" viewBox="0 0 20 20" fill="none" xmlns="http://www.w3.org/2000/svg">
<path d="M14.4035 11.1302C14.0973 11.4291 13.9223 11.8593 13.966 12.3187C14.0316 13.1062 14.7535 13.6822 15.541 13.6822H16.9264V14.55C16.9264 16.0593 15.6941 17.2916 14.1848 17.2916H5.81393C4.30456 17.2916 3.07227 16.0593 3.07227 14.55V9.64267C3.07227 8.1333 4.30456 6.901 5.81393 6.901H14.1848C15.6941 6.901 16.9264 8.1333 16.9264 9.64267V10.6927H15.4535C15.0452 10.6927 14.6733 10.8531 14.4035 11.1302Z" stroke="#171719" stroke-width="1.66667" stroke-linecap="round" stroke-linejoin="round"/>
<path d="M3.07227 10.299V6.9667C3.07227 6.09899 3.60456 5.32604 4.41393 5.01979L10.2035 2.83229C11.1077 2.48958 12.0775 3.16044 12.0775 4.13023V6.90105" stroke="#171719" stroke-width="1.66667" stroke-linecap="round" stroke-linejoin="round"/>
<path d="M17.698 11.4366V12.9387C17.698 13.3398 17.3772 13.6679 16.9688 13.6824H15.5397C14.7522 13.6824 14.0303 13.1064 13.9647 12.3189C13.9209 11.8595 14.0959 11.4293 14.4022 11.1304C14.672 10.8533 15.0438 10.6929 15.4522 10.6929H16.9688C17.3772 10.7075 17.698 11.0355 17.698 11.4366Z" stroke="#171719" stroke-width="1.66667" stroke-linecap="round" stroke-linejoin="round"/>
<path d="M6.35352 10H11.4577" stroke="#171719" stroke-width="1.66667" stroke-linecap="round" stroke-linejoin="round"/>
</svg>
